<svg viewBox="0 0 800 800" xmlns="http://www.w3.org/2000/svg"><path d="M344.0210890150781,491.7102905782891 L330.3987345760313,485.812025624863 M330.3987345760313,485.812025624863 L318.0011432235415,479.0808236039117 M318.0011432235415,479.0808236039117 L306.98020593070294,471.6008335556351 M306.98020593070294,471.6008335556351 L297.4702763812751,463.46533200292936 M297.4702763812751,463.46533200292936 L289.5865940591708,454.77551883245377 M289.5865940591708,454.77551883245377 L283.4238740824078,445.63918623529986 M283.4238740824078,445.63918623529986 L279.0552724406436,436.1693356739641 M279.0552724406436,436.1693356739641 L276.53160196977814,426.48273211201575 M276.53160196977814,426.48273211201575 L275.8807982031075,416.6984259233502 M275.8807982031075,416.6984259233502 L277.1078040021721,406.9363021320546 M277.1078040021721,406.9363021320546 L280.1945680454097,397.31555585893295 M280.1945680454097,397.31555585893295 L285.10047829575154,387.953305150622 M285.10047829575154,387.953305150622 L291.76294968558557,378.96314083155715 M291.76294968558557,378.96314083155715 L300.09836251386696,370.45381813875633 M300.09836251386696,370.45381813875633 L310.00313698811436,362.52796420655125 M310.00313698811436,362.52796420655125 L321.3550969195586,355.28090206745475 M321.3550969195586,355.28090206745475 L334.0150259161291,348.79957878568854 M334.0150259161291,348.79957878568854 L347.8283544756901,343.16156621554717 M347.8283544756901,343.16156621554717 L362.6270668421193,338.43421304427625 M362.6270668421193,338.43421304427625 L378.23168322055176,334.6738909284822 M378.23168322055176,334.6738909284822 L394.4533662579851,331.9253637266848 M394.4533662579851,331.9253637266848 L411.09616962782604,330.22132805125153 M411.09616962782604,330.22132805125153 L427.95925449423885,329.5820296371299 M427.95925449423885,329.5820296371299 L444.8392934461164,330.0150717786761 M444.8392934461164,330.0150717786761 L461.53271343604985,331.5152954664853 M461.53271343604985,331.5152954664853 L477.83813081830067,334.0648867361294 M477.83813081830067,334.0648867361294 L493.5586239057091,337.6335216317448 M493.5586239057091,337.6335216317448 L508.50402861062673,342.1787197260623 M508.50402861062673,342.1787197260623 L522.493166908995,347.64630722500726 M522.493166908995,347.64630722500726 L535.3559688269695,353.9709893940219 M535.3559688269695,353.9709893940219 L546.935519722743,361.077104516316 M546.935519722743,361.077104516316 L557.0899162880339,368.8794427100229 M567.3292782922534,372.4587328834684 L566.9155191922868,372.6470702781377 M566.9155191922868,372.6470702781377 L566.4335892199779,372.7733520649405 M566.4335892199779,372.7733520649405 L565.9144407679739,372.8334679221972 M565.9144407679739,372.8334679221972 L565.3870582265491,372.83517245072693 M565.3870582265491,372.83517245072693 L564.6914639343672,372.76669565937925 M564.6914639343672,372.76669565937925 L563.9443206622436,372.62108696183293 M563.9443206622436,372.62108696183293 L562.0708617888484,371.9991396734457 M562.0708617888484,371.9991396734457 L560.0924331803801,371.0129094135337 M560.0924331803801,371.0129094135337 L557.0899162880339,368.8794427100229 M700.0351271633614,295.91536942264736 L567.3292782922534,372.4587328834684 M655.2120192368897,253.57929336494206 L667.4431024531734,257.9173007627229 M667.4431024531734,257.9173007627229 L678.7246734140832,263.00240780314016 M678.7246734140832,263.00240780314016 L688.2878160295799,268.4948912678145 M688.2878160295799,268.4948912678145 L695.8575462162337,274.1700339879963 M695.8575462162337,274.1700339879963 L701.1574015858357,279.71131743319313 M701.1574015858357,279.71131743319313 L704.1103126538721,284.8432600881945 M704.1103126538721,284.8432600881945 L704.8213288352788,288.7569549133409 M704.8213288352788,288.7569549133409 L704.1630514326328,291.675008570203 M704.1630514326328,291.675008570203 L702.7920168766755,293.7457713894971 M702.7920168766755,293.7457713894971 L701.5648092073383,294.8858632026222 M701.5648092073383,294.8858632026222 L700.0351271633614,295.91536942264736 M139.72499457289126,549.7718753526071 L127.70247593869345,535.6173736364678 M127.70247593869345,535.6173736364678 L117.48065793319739,521.0122932213146 M117.48065793319739,521.0122932213146 L109.10822438666838,506.0334273875065 M109.10822438666838,506.0334273875065 L102.62388200576362,490.75914321123486 M102.62388200576362,490.75914321123486 L98.05627674290758,475.2690080663161 M98.05627674290758,475.2690080663161 L95.42399523975007,459.6432843808043 M95.42399523975007,459.6432843808043 L94.73553891254784,443.96249312377705 M94.73553891254784,443.96249312377705 L95.98934063514196,428.3070571046006 M95.98934063514196,428.3070571046006 L99.173957304856,412.75682587589307 M99.173957304856,412.75682587589307 L104.26815323576699,397.39071884612764 M104.26815323576699,397.39071884612764 L111.241192226735,382.28630335314637 M111.241192226735,382.28630335314637 L120.05296373533264,367.51944419723 M120.05296373533264,367.51944419723 L130.6544822786197,353.1639402770013 M130.6544822786197,353.1639402770013 L142.98793536521327,339.29115155800656 M142.98793536521327,339.29115155800656 L156.98732715420965,325.96976608259445 M156.98732715420965,325.96976608259445 L172.57865757555734,313.26538152949865 M172.57865757555734,313.26538152949865 L189.68046564262855,301.24029409821605 M189.68046564262855,301.24029409821605 L208.20427761500093,289.9532460829437 M208.20427761500093,289.9532460829437 L228.054985917728,279.45911633827416 M228.054985917728,279.45911633827416 L249.1314561893371,269.80876957663463 M249.1314561893371,269.80876957663463 L271.32690849112885,261.0487855702703 M271.32690849112885,261.0487855702703 L294.5295534381842,253.2213289888417 M294.5295534381842,253.2213289888417 L318.6231070304064,246.36398615376754 M318.6231070304064,246.36398615376754 L343.48721140601384,240.5095528261673 M343.48721140601384,240.5095528261673 L368.99818818484965,235.686034578847 M368.99818818484965,235.686034578847 L395.02944766475747,231.91638329480452 M395.02944766475747,231.91638329480452 L421.45211265232945,229.21857254385117 M421.45211265232945,229.21857254385117 L448.1356019335877,227.60541492283977 M448.1356019335877,227.60541492283977 L474.9481663167401,227.08458625591135 M474.9481663167401,227.08458625591135 L501.7575246008643,227.65855088084317 M501.7575246008643,227.65855088084317 L528.4313665073266,229.32459614875063 M528.4313665073266,229.32459614875063 L554.8380382942973,232.07479744636058 M554.8380382942973,232.07479744636058 L580.8470091739046,235.89607009438777 M580.8470091739046,235.89607009438777 L606.3294602705888,240.7702340479653 M606.3294602705888,240.7702340479653 L631.1589786185061,246.67405090292957 M631.1589786185061,246.67405090292957 L655.2120192368897,253.57929336494206 M214.5154501480776,575.9581062070417 L211.65160411573322,577.2694592046431 M211.65160411573322,577.2694592046431 L208.34731287512972,578.1808697820113 M208.34731287512972,578.1808697820113 L204.8062525721235,578.6887177384081 M204.8062525721235,578.6887177384081 L201.1812974041435,578.8446434557342 M201.1812974041435,578.8446434557342 L196.36851808529246,578.613756229297 M196.36851808529246,578.613756229297 L189.37835894056275,577.5709404868446 M189.37835894056275,577.5709404868446 L181.9437885619031,575.6931477303488 M181.9437885619031,575.6931477303488 L172.4385086427211,572.2510222429072 M172.4385086427211,572.2510222429072 L162.46665566130577,567.3749904236349 M162.46665566130577,567.3749904236349 L152.76735004825304,561.2090011549353 M152.76735004825304,561.2090011549353 L145.80878691793876,555.6770973840033 M145.80878691793876,555.6770973840033 L139.72499457289126,549.7718753526071 M350.24692088324997,497.66959529412145 L214.5154501480776,575.9581062070417 M344.0210890150781,491.7102905782891 L347.4509646635358,493.2886801243895 M347.4509646635358,493.2886801243895 L349.7658354594589,494.85872410290204 M349.7658354594589,494.85872410290204 L350.54817960019056,495.7002822185437 M350.54817960019056,495.7002822185437 L350.8864298053802,496.3903479341824 M350.8864298053802,496.3903479341824 L350.9107013936824,496.83165296822983 M350.9107013936824,496.83165296822983 L350.7961641631619,497.1556856271001 M350.7961641631619,497.1556856271001 L350.5745466930145,497.4313434935925 M350.5745466930145,497.4313434935925 L350.24692088324997,497.66959529412145 M68.92430954842644,485.34080125698694 L70.5370898789696,486.0795352417058 M70.5370898789696,486.0795352417058 L72.41368840861185,486.57116460423407 M72.41368840861185,486.57116460423407 L74.44495093476502,486.7871015237736 M74.44495093476502,486.7871015237736 L76.51274625656748,486.71476453057574 M76.51274625656748,486.71476453057574 L78.49681665018363,486.3583884630471 M78.49681665018363,486.3583884630471 L80.2817749286084,485.7386701890209 M80.2817749286084,485.7386701890209 L81.76382083385118,484.89171777696816 M81.76382083385118,484.89171777696816 L82.856864991414,483.86678449699883 M82.856864991414,483.86678449699883 L83.49735361444294,482.7234957252072 M83.49735361444294,482.7234957252072 L83.6482227153947,481.5283275342627 M83.6482227153947,481.5283275342627 L83.30075875263316,480.3507386284701 M83.30075875263316,480.3507386284701 L82.47526703471044,479.2591415555669 M82.47526703471044,479.2591415555669 L81.21974220871311,478.31695097049015 M81.21974220871311,478.31695097049015 L79.60721874427816,477.5788530375343 M79.60721874427816,477.5788530375343 L77.73136016923542,477.08771399943555 M77.73136016923542,477.08771399943555 L75.70115114505933,476.87200937239396 M75.70115114505933,476.87200937239396 L73.63448153521125,476.9442673987826 M73.63448153521125,476.9442673987826 L71.651351188955,477.30027135494834 M71.651351188955,477.30027135494834 L69.86693192576206,477.9194095744419 M69.86693192576206,477.9194095744419 L68.38490053089163,478.7657069117425 M68.38490053089163,478.7657069117425 L67.29134305516902,479.79006014605307 M67.29134305516902,479.79006014605307 L66.64993087028716,480.93297678993775 M66.64993087028716,480.93297678993775 L66.49793955571226,482.12806601867663 M66.49793955571226,482.12806601867663 L66.84433972564051,483.30588721699746 M66.84433972564051,483.30588721699746 L67.66906976653382,484.3979746272707 M67.66906976653382,484.3979746272707 L68.92430954842644,485.34080125698694 M144.51296791344373,589.6626596605703 L146.1381910017711,590.4099649953414 M146.1381910017711,590.4099649953414 L148.02770048024013,590.9073188214318 M148.02770048024013,590.9073188214318 L150.07163009504956,591.1257624729373 M150.07163009504956,591.1257624729373 L152.1510976184116,591.0525915542652 M152.1510976184116,591.0525915542652 L154.14516059428144,590.6920552368757 M154.14516059428144,590.6920552368757 L155.93781632915304,590.065164443207 M155.93781632915304,590.065164443207 L157.42489061841337,589.2083653295265 M157.42489061841337,589.2083653295265 L158.51989621797392,588.1715451924523 M158.51989621797392,588.1715451924523 L159.15930404485022,587.0149791716221 M159.15930404485022,587.0149791716221 L159.30598999203218,585.8059344423749 M159.30598999203218,585.8059344423749 L158.95154375004645,584.614679733868 M158.95154375004645,584.614679733868 L158.1166374290122,583.5104291379251 M158.1166374290122,583.5104291379251 L156.84990527012351,582.5572942277736 M156.84990527012351,582.5572942277736 L155.2249178449527,581.8106515268057 M155.2249178449527,581.8106515268057 L153.33615896983648,581.3137966027069 M153.33615896983648,581.3137966027069 L151.2932960701209,581.0955892994883 M151.2932960701209,581.0955892994883 L149.2149669958114,581.168679878939 M149.2149669958114,581.168679878939 L147.2218533987092,581.5288375639989 M147.2218533987092,581.5288375639989 L145.42974047508486,582.1551381963692 M145.42974047508486,582.1551381963692 L143.94267808477957,583.0112707861703 M143.94267808477957,583.0112707861703 L142.84715074551758,584.0475007565163 M142.84715074551758,584.0475007565163 L142.20680705874508,585.2036881500607 M142.20680705874508,585.2036881500607 L142.0589855310791,586.4126525399522 M142.0589855310791,586.4126525399522 L142.41235661926333,587.6041435990413 M142.41235661926333,587.6041435990413 L143.2464945239861,588.708893087559 M143.2464945239861,588.708893087559 L144.51296791344373,589.6626596605703 M710.7721527297496,263.52998009249995 L712.3910863627227,264.2506270845666 M712.3910863627227,264.2506270845666 L714.261858595989,264.7302483464781 M714.261858595989,264.7302483464781 L716.2757185393289,264.9409034975863 M716.2757185393289,264.9409034975863 L718.3155345796326,264.8703414620139 M718.3155345796326,264.8703414620139 L720.2626719209347,264.52265978928244 M720.2626719209347,264.52265978928244 L722.0038602762008,263.9181197117103 M722.0038602762008,263.9181197117103 L723.4379175929919,263.09186708474516 M723.4379175929919,263.09186708474516 L724.4814417745623,262.0920096412847 M724.4814417745623,262.0920096412847 L725.0738934595374,260.9766728342028 M725.0738934595374,260.9766728342028 L725.1808769696293,259.81072534094 M725.1808769696293,259.81072534094 L724.7962856837664,258.66193099512395 M724.7962856837664,258.66193099512395 L723.9425401781896,257.59703721469407 M723.9425401781896,257.59703721469407 L722.6693385311157,256.6778862302566 M722.6693385311157,256.6778862302566 L721.0507035160182,255.95783715598577 M721.0507035160182,255.95783715598577 L719.1806701540831,255.47868836007598 M719.1806701540831,255.47868836007598 L717.1678460197543,255.2682570335502 M717.1678460197543,255.2682570335502 L715.1291254291149,255.33874298694332 M715.1291254291149,255.33874298694332 L713.1828922241932,255.68606609044542 M713.1828922241932,255.68606609044542 L711.4422095602113,256.2900472783885 M711.4422095602113,256.2900472783885 L710.0081436473546,257.11566869946915 M710.0081436473546,257.11566869946915 L708.9640985519991,258.114967248157 M708.9640985519991,258.114967248157 L708.3707329644452,259.22994549078425 M708.3707329644452,259.22994549078425 L708.2626519325264,260.3958169017403 M708.2626519325264,260.3958169017403 L708.646213505741,261.5448350743138 M708.646213505741,261.5448350743138 L709.499233008335,262.6102013118291 M709.499233008335,262.6102013118291 L710.7721527297496,263.52998009249995 M533.5969653320492,219.89335775263373 L535.2047579426942,220.61049519728772 M535.2047579426942,220.61049519728772 L537.0662065159884,221.08775152731565 M537.0662065159884,221.08775152731565 L539.0730392054792,221.29737530088505 M539.0730392054792,221.29737530088505 L541.1085462875008,221.22715316501126 M541.1085462875008,221.22715316501126 L543.0543499431898,220.88119605103856 M543.0543499431898,220.88119605103856 L544.7972888792283,220.2795952814001 M544.7972888792283,220.2795952814001 L546.2360087989334,219.4574025936082 M546.2360087989334,219.4574025936082 L547.2869384572211,218.46243059183843 M547.2869384572211,218.46243059183843 L547.8889729175894,217.3525609497097 M547.8889729175894,217.3525609497097 L548.0072803308722,216.19232614378836 M548.0072803308722,216.19232614378836 L547.6350373236309,215.0491545850799 M547.6350373236309,215.0491545850799 L546.7939856874289,213.989459614866 M546.7939856874289,213.989459614866 L545.5330224973666,213.07480318390805 M545.5330224973666,213.07480318390805 L543.9254951583994,212.35827410964924 M543.9254951583994,212.35827410964924 L542.0647771794374,211.88148676482655 M542.0647771794374,211.88148676482655 L540.0589730114882,211.67208517424098 M540.0589730114882,211.67208517424098 L538.0245567630238,211.74223177999022 M538.0245567630238,211.74223177999022 L536.079656368804,212.08783297711813 M536.079656368804,212.08783297711813 L534.3372261811046,212.6888789365581 M534.3372261811046,212.6888789365581 L532.8985039583765,213.51044505885756 M532.8985039583765,213.51044505885756 L531.8470614732516,214.50486225891518 M531.8470614732516,214.50486225891518 L531.2441211349912,215.6143759683739 M531.2441211349912,215.6143759683739 L531.1247223330115,216.77453524857356 M531.1247223330115,216.77453524857356 L531.4959384520675,217.9179289902957 M531.4959384520675,217.9179289902957 L532.3362629415467,218.97809295809355 M532.3362629415467,218.97809295809355 L533.5969653320492,219.89335775263373 M747.1921573769995,286.0254870814359 L742.1183422046429,283.19866770258966 M742.1183422046429,283.19866770258966 L736.9575206982088,280.4257938856665 M736.9575206982088,280.4257938856665 L731.7114160034735,277.70773704034565 M747.1921573769995,286.0254870814359 L635.2128358849628,350.676778488535 M635.2128358849628,350.676778488535 L627.8699201245547,355.5845195483525 M627.8699201245547,355.5845195483525 L621.8406744664042,361.0572016263002 M621.8406744664042,361.0572016263002 L617.2524839830452,366.98079747256526 M617.2524839830452,366.98079747256526 L614.202908019816,373.2316387162658 M614.202908019816,373.2316387162658 L612.7575175882258,379.6789587230414 M612.7575175882258,379.6789587230414 L612.9483499669099,386.1876235294162 M612.9483499669099,386.1876235294162 L614.773200221576,392.6208725034109 M614.8840552989959,392.88979056311854 L614.8472282054661,392.80013641722326 M614.8472282054661,392.80013641722326 L614.8102846990565,392.7104916950566 M614.8102846990565,392.7104916950566 L614.773200221576,392.6208725034109 M571.0684284781048,404.0353302520103 L574.7785207454275,406.4715855255083 M574.7785207454275,406.4715855255083 L579.3549053694668,408.3573012562428 M579.3549053694668,408.3573012562428 L584.5552999495637,409.5923577168051 M584.5552999495637,409.5923577168051 L590.1041458167297,410.1111563979108 M590.1041458167297,410.1111563979108 L595.7072958396575,409.88612784917507 M595.7072958396575,409.88612784917507 L601.067711134442,408.9292262049774 M601.067711134442,408.9292262049774 L605.9012786226021,407.2912930890469 M605.9012786226021,407.2912930890469 L609.9520137308718,405.0593101863918 M609.9520137308718,405.0593101863918 L613.0056269993638,402.3517194475973 M613.0056269993638,402.3517194475973 L614.9008693896877,399.3121030988348 M614.9008693896877,399.3121030988348 L615.5380273317644,396.1014908926522 M615.5380273317644,396.1014908926522 L614.8840552989959,392.88979056311854 M571.0684284781048,404.0353302520103 L567.3636053171444,394.7395993357497 M567.3636053171444,394.7395993357497 L561.8325888252131,385.7570321706098 M561.8325888252131,385.7570321706098 L554.5511934496528,377.20586072806253 M554.5511934496528,377.20586072806253 L545.6179918474016,369.1983020791699 M545.6179918474016,369.1983020791699 L535.1529096347374,361.83915000883803 M535.1529096347374,361.83915000883803 L523.2955578380165,355.22446388444075 M523.2955578380165,355.22446388444075 L510.20335760193944,349.440385399373 M510.20335760193944,349.440385399373 L496.04945493579567,344.5620822061092 M496.04945493579567,344.5620822061092 L481.020438993923,340.6528277945081 M481.020438993923,340.6528277945081 L465.314002096068,337.7632625077363 M465.314002096068,337.7632625077363 L449.1363326642274,335.93077372315497 M449.1363326642274,335.93077372315497 L432.699585176908,335.17904905050295 M432.699585176908,335.17904905050295 L416.2191360456744,335.51779520970865 M416.2191360456744,335.51779520970865 L399.9109172894903,336.942635342275 M399.9109172894903,336.942635342275 L383.9887321161372,339.4351649814709 M383.9887321161372,339.4351649814709 L368.661495979889,342.96314074164627 M368.661495979889,342.96314074164627 L354.130650025126,347.48088921458225 M354.130650025126,347.48088921458225 L340.587574728962,352.9298445434501 M340.587574728962,352.9298445434501 L328.2111410458849,359.2392409893669 M328.2111410458849,359.2392409893669 L317.16539121155233,366.32698168907166 M317.16539121155233,366.32698168907166 L307.5973850632939,374.10063662763963 M307.5973850632939,374.10063662763963 L299.6352350123903,382.458576916333 M299.6352350123903,382.458576916333 L293.3863290121499,391.29123745373596 M293.3863290121499,391.29123745373596 L288.9358371385822,400.4824912645053 M288.9358371385822,400.4824912645053 L286.3454794973917,409.91114192332265 M286.3454794973917,409.91114192332265 L285.65252519190545,419.4524547183792 M285.65252519190545,419.4524547183792 L286.8691961519694,428.9798243960948 M286.8691961519694,428.9798243960948 L289.9823380271142,438.3664327187354 M289.9823380271142,438.3664327187354 L294.9534149454738,447.48692290494125 M294.9534149454738,447.48692290494125 L301.7188717304701,456.21913983543766 M301.7188717304701,456.21913983543766 L310.19084958655003,464.4457585753966 M310.19084958655003,464.4457585753966 L320.2582696961123,472.05596153483646 M320.2582696961123,472.05596153483646 L331.7881920718318,478.94695544283445 M331.7881920718318,478.94695544283445 L344.62755330513465,485.0254407058235 M344.62755330513465,485.0254407058235 L358.6051981006538,490.2089447811551 M358.6051981006538,490.2089447811551 L373.53417796948224,494.42700478290817 M373.53417796948224,494.42700478290817 L389.214305957194,497.62219520068027 M389.214305957194,497.62219520068027 L405.43489931192823,499.7509654438027 M385.8471104675427,525.3494271272889 L391.4641748257572,525.7167479192813 M391.4641748257572,525.7167479192813 L397.0807767047761,525.3298432456781 M397.0807767047761,525.3298432456781 L402.3991693883604,524.2092759342144 M402.3991693883604,524.2092759342144 L407.13751016232624,522.414569528655 M407.13751016232624,522.414569528655 L411.04487820453204,520.0410246248858 M411.04487820453204,520.0410246248858 L413.9146450825397,517.2145872278638 M413.9146450825397,517.2145872278638 L415.59535020332186,514.0851008397178 M415.59535020332186,514.0851008397178 L415.998654300731,510.8183324178422 M415.998654300731,510.8183324178422 L415.1039136191668,507.58712377288504 M415.1039136191668,507.58712377288504 L412.95911576296413,504.56225856200456 M412.95911576296413,504.56225856200456 L409.67818704019095,501.9034540343336 M409.67818704019095,501.9034540343336 L405.43489931192823,499.7509654438027 M385.3768698877015,525.2858900044528 L385.533582286586,525.3071468809833 M385.533582286586,525.3071468809833 L385.6903385655994,525.3283211143689 M385.6903385655994,525.3283211143689 L385.8471104675427,525.3494271272889 M385.3768698877015,525.2858900044528 L374.12154126733554,524.2488263390119 M374.12154126733554,524.2488263390119 L362.7213843575867,524.1666914454313 M362.7213843575867,524.1666914454313 L351.41410850784723,525.0411640447123 M351.41410850784723,525.0411640447123 L340.4354507345589,526.8541667671186 M340.4354507345589,526.8541667671186 L330.0144995326058,529.5681604753063 M330.0144995326058,529.5681604753063 L320.36895819077085,533.1269125440756 M320.36895819077085,533.1269125440756 L311.7006557799673,537.4566227582769 M311.7006557799673,537.4566227582769 L196.53450252648594,603.9478323407079 M181.88107438137988,594.8453210826738 L186.66761703408787,597.9307825274088 M186.66761703408787,597.9307825274088 L191.5526321318386,600.9653093197617 M191.5526321318386,600.9653093197617 L196.53450252648594,603.9478323407079 M181.88107438137988,594.8453210826738 L180.12120902755993,593.9385822935534 M180.12120902755993,593.9385822935534 L178.03801527942238,593.3031702059174 M178.03801527942238,593.3031702059174 L175.75065755578325,592.9753320962529 M175.75065755578325,592.9753320962529 L173.38979310429139,592.9738334205759 M173.38979310429139,592.9738334205759 L171.0903943537162,593.2987350512883 M171.0903943537162,593.2987350512883 L168.98386301462006,593.9314950447651 M168.98386301462006,593.9314950447651 L167.1906578485208,594.8359599413211 M140.84284151837204,574.4637323573785 L136.44033223971246,576.1383388687748 M136.44033223971246,576.1383388687748 L132.81471979611558,578.357889136453 M132.81471979611558,578.357889136453 L130.16415902552671,581.0014526442596 M130.16415902552671,581.0014526442596 L128.63375629655786,583.9248937365234 M128.63375629655786,583.9248937365234 L128.30769791905897,586.9686331663311 M128.30769791905897,586.9686331663311 L129.2043058203285,589.9664468221625 M129.2043058203285,589.9664468221625 L131.2752233768049,592.7543745623028 M131.2752233768049,592.7543745623028 L134.4076950550065,595.179830529868 M134.4076950550065,595.179830529868 L138.43068093567626,597.1099760504918 M138.43068093567626,597.1099760504918 L143.12431266378502,598.4389709632521 M143.12431266378502,598.4389709632521 L148.2317487040586,599.0939296845332 M148.2317487040586,599.0939296845332 L153.473335314551,599.0389455176522 M153.473335314551,599.0389455176522 L158.5621280805256,598.2769994589614 M158.5621280805256,598.2769994589614 L163.21949888945164,596.8499228409066 M163.21949888945164,596.8499228409066 L167.1906578485208,594.8359599413211 M140.84284151837204,574.4637323573785 L142.82276291792323,573.7061655545793 M142.82276291792323,573.7061655545793 L144.44151082962378,572.6988821561916 M144.44151082962378,572.6988821561916 L145.6064952239152,571.4995823410746 M145.6064952239152,571.4995823410746 L146.2511765022802,570.1769050724597 M146.2511765022802,570.1769050724597 L146.33876723228838,568.8065639098891 M146.33876723228838,568.8065639098891 L145.86434871797002,567.4669723390779 M145.86434871797002,567.4669723390779 L144.85522734147338,566.2346916634472 M95.28379282551049,497.91006495233574 L102.00486071582668,512.2521343476583 M102.00486071582668,512.2521343476583 L110.35912095806208,526.3174941890464 M110.35912095806208,526.3174941890464 L120.31361594996429,540.0436391213271 M120.31361594996429,540.0436391213271 L131.8281266184394,553.3692905734999 M131.8281266184394,553.3692905734999 L144.85522734147338,566.2346916634472 M95.28379282551049,497.91006495233574 L94.47614634959581,496.63887799052577 M94.47614634959581,496.63887799052577 L93.16807731811826,495.5189399465412 M93.16807731811826,495.5189399465412 L91.43446060793133,494.61423050859645 M91.43446060793133,494.61423050859645 L89.3744488375749,493.97644366639406 M89.3744488375749,493.97644366639406 L87.10580637537993,493.64199482924045 M87.10580637537993,493.64199482924045 L84.7582062122475,493.6299907765732 M84.7582062122475,493.6299907765732 L82.46583037398767,493.9411124663787 M75.84642509186807,468.95072325187186 L70.65972750969877,469.2367908832282 M70.65972750969877,469.2367908832282 L65.71364930143051,470.2104337955606 M65.71364930143051,470.2104337955606 L61.27796680875463,471.8186525296199 M61.27796680875463,471.8186525296199 L57.59481102145202,473.9738799081702 M57.59481102145202,473.9738799081702 L54.86543158884041,476.5587143330609 M54.86543158884041,476.5587143330609 L53.239230312478185,479.4322051807905 M53.239230312478185,479.4322051807905 L52.805517212738664,482.43757369873686 M52.805517212738664,482.43757369873686 L53.58864548369985,485.4106152582674 M53.58864548369985,485.4106152582674 L55.54631621854804,488.188810474369 M55.54631621854804,488.188810474369 L58.572026750121154,490.62008422493716 M58.572026750121154,490.62008422493716 L62.500650401487064,492.5712747274379 M62.500650401487064,492.5712747274379 L67.11740525190692,493.93543986308737 M67.11740525190692,493.93543986308737 L72.16968598495032,494.6377582751225 M72.16968598495032,494.6377582751225 L77.38094004712508,494.63968251029087 M77.38094004712508,494.63968251029087 L82.46583037398767,493.9411124663787 M75.84642509186807,468.95072325187186 L78.18283992583474,468.81814647391434 M78.18283992583474,468.81814647391434 L80.40494005027733,468.36902207645437 M80.40494005027733,468.36902207645437 L82.38553388438783,467.62906369150465 M82.38553388438783,467.62906369150465 L84.01127893357727,466.64068996666447 M84.01127893357727,466.64068996666447 L85.18915005244685,465.46049899847304 M85.18915005244685,465.46049899847304 L85.85184780855673,464.1560687686229 M85.85184780855673,464.1560687686229 L85.96156669791867,462.8020424859776 M145.7046417170589,325.77390369056445 L133.06960106238535,338.099729706707 M133.06960106238535,338.099729706707 L121.81211214768012,350.8741982175186 M121.81211214768012,350.8741982175186 L111.98067043721807,364.0465676942376 M111.98067043721807,364.0465676942376 L103.61829085361398,377.56428114814975 M103.61829085361398,377.56428114814975 L96.7622928167126,391.3732049319355 M96.7622928167126,391.3732049319355 L91.4441011323795,405.41770909136324 M91.4441011323795,405.41770909136324 L87.68906118692968,419.64102510030773 M87.68906118692968,419.64102510030773 L85.51623511438595,433.9853170999422 M85.51623511438595,433.9853170999422 L84.93833316788454,448.39202432025075 M84.93833316788454,448.39202432025075 L85.96156669791867,462.8020424859776 M145.7046417170589,325.77390369056445 L150.9611781916508,320.76917272306594 M150.9611781916508,320.76917272306594 L155.9521708393607,315.66157739371465 M155.9521708393607,315.66157739371465 L162.42507412986467,308.7848396769442 M162.42507412986467,308.7848396769442 L168.98103725803975,301.9492023152133 M168.98103725803975,301.9492023152133 L173.43945663856266,297.59507872969675 M173.43945663856266,297.59507872969675 L178.17712174507608,293.35545601310224 M178.17712174507608,293.35545601310224 L182.829018179645,289.621566070697 M182.829018179645,289.621566070697 L187.85554661751888,286.04077549817976 M187.85554661751888,286.04077549817976 L197.6056037980338,280.25395254305806 M197.6056037980338,280.25395254305806 L203.34349904855605,277.425542888569 M203.34349904855605,277.425542888569 L209.45391744533384,274.76179713407623 M209.45391744533384,274.76179713407623 L216.33732644928617,272.09071507863126 M216.33732644928617,272.09071507863126 L223.41594253017243,269.6117824746582 M223.41594253017243,269.6117824746582 L235.30151138308557,265.8268032366414 M235.30151138308557,265.8268032366414 L247.33608567628818,262.2014866876864 M247.33608567628818,262.2014866876864 L254.0645501725675,260.16427602860404 M254.0645501725675,260.16427602860404 L260.7427297945063,258.0783683034242 M260.7427297945063,258.0783683034242 L271.0600368838572,254.62453429968156 M507.14260177383863,222.37050315019252 L482.523264848939,221.61935283634503 M482.523264848939,221.61935283634503 L457.8713775994929,221.7692922722759 M457.8713775994929,221.7692922722759 L433.2845061797757,222.8197498318102 M433.2845061797757,222.8197498318102 L408.85997983191476,224.76672326530417 M408.85997983191476,224.76672326530417 L384.69463900587266,227.60281059193926 M384.69463900587266,227.60281059193926 L360.88429474241605,231.31719106104205 M360.88429474241605,231.31719106104205 L337.52364119092755,235.89568280402176 M337.52364119092755,235.89568280402176 L314.7056615713645,241.32078449016473 M314.7056615713645,241.32078449016473 L292.52149840590283,247.5717273565839 M292.52149840590283,247.5717273565839 L271.0600368838572,254.62453429968156 M507.14260177383863,222.37050315019252 L509.4537911634776,222.3252071618715 M509.4537911634776,222.3252071618715 L511.6793257086994,221.96824626969737 M511.6793257086994,221.96824626969737 L513.6918149817598,221.32007641295468 M513.6918149817598,221.32007641295468 L515.3760655374762,220.41782438537297 M515.3760655374762,220.41782438537297 L516.6357444974399,219.31318919551853 M516.6357444974399,219.31318919551853 L517.3987994024455,218.0694188960933 M517.3987994024455,218.0694188960933 L517.6217127988665,216.75769462878387 M560.2005326568533,220.78446311866733 L561.3748355319578,217.93807199644783 M561.3748355319578,217.93807199644783 L561.3572218127266,215.01313934460075 M561.3572218127266,215.01313934460075 L560.1492224667538,212.16948144220646 M560.1492224667538,212.16948144220646 L557.8173847954702,209.5623085215089 M557.8173847954702,209.5623085215089 L554.4894688728228,207.3338108022262 M554.4894688728228,207.3338108022262 L550.3473855321723,205.60544687855105 M550.3473855321723,205.60544687855105 L545.6172634431831,204.4713341583872 M545.6172634431831,204.4713341583872 L540.5572002094206,203.9931818303357 M540.5572002094206,203.9931818303357 L535.4430658682575,204.1970515098268 M535.4430658682575,204.1970515098268 L530.5537928708615,205.07181254399399 M530.5537928708615,205.07181254399399 L526.1560041706863,206.5698717930732 M526.1560041706863,206.5698717930732 L522.4897535014456,208.60966860710278 M522.4897535014456,208.60966860710278 L519.7553234760901,211.0800800048553 M519.7553234760901,211.0800800048553 L518.1023795576074,213.84640483782437 M518.1023795576074,213.84640483782437 L517.6217127988665,216.75769462878387 M560.2005326568533,220.78446311866733 L559.6774585248095,222.06809303702303 M559.6774585248095,222.06809303702303 L559.7042205939979,223.3868717141692 M559.7042205939979,223.3868717141692 L560.2794154711578,224.66535102240596 M560.2794154711578,224.66535102240596 L561.3702295089086,225.83036100658722 M561.3702295089086,225.83036100658722 L562.9143464044481,226.8152066639219 M562.9143464044481,226.8152066639219 L564.8234292558907,227.56348528813788 M564.8234292558907,227.56348528813788 L566.9882588964974,228.03232716337095 M683.1054200645113,256.63078394663535 L661.2575055701161,249.18140404908831 M661.2575055701161,249.18140404908831 L638.6248000022728,242.5718760086849 M638.6248000022728,242.5718760086849 L615.3030832876316,236.82898239544494 M615.3030832876316,236.82898239544494 L591.3907154378386,231.97593250997733 M591.3907154378386,231.97593250997733 L566.9882588964974,228.03232716337095 M683.1054200645113,256.63078394663535 L685.1958108310014,257.210055961002 M685.1958108310014,257.210055961002 L687.4638838029829,257.49010669805614 M687.4638838029829,257.49010669805614 L689.7798511674064,257.454857929958 M689.7798511674064,257.454857929958 L692.0110753535607,257.10634779939784 M692.0110753535607,257.10634779939784 L694.029793976958,256.4645561983405 M694.029793976958,256.4645561983405 L695.7205109835043,255.5662339452474 M695.7205109835043,255.5662339452474 L696.9864897239019,254.46283702523917 M731.5764070424202,269.45512632321345 L734.9408139947461,267.24498002590735 M734.9408139947461,267.24498002590735 L737.3085667449204,264.6451166331069 M737.3085667449204,264.6451166331069 L738.5506583033815,261.7978486876235 M738.5506583033815,261.7978486876235 L738.5996836067912,258.858936376405 M738.5996836067912,258.858936376405 L737.4536046158383,255.98894079691775 M737.4536046158383,255.98894079691775 L735.1755220380375,253.34456045041458 M735.1755220380375,253.34456045041458 L731.8902565948513,251.0700308955517 M731.8902565948513,251.0700308955517 L727.7774815392324,249.2892734371412 M727.7774815392324,249.2892734371412 L723.0617166989971,248.0992954373124 M723.0617166989971,248.0992954373124 L718.0002283271647,247.56487748169275 M718.0002283271647,247.56487748169275 L712.8690907231328,247.71506322424833 M712.8690907231328,247.71506322424833 L707.9480100040755,248.54173148155007 M707.9480100040755,248.54173148155007 L703.5054420946099,249.99985744580914 M703.5054420946099,249.99985744580914 L699.7838277452945,252.0100654246689 M699.7838277452945,252.0100654246689 L696.9864897239019,254.46283702523917 M731.5764070424202,269.45512632321345 L730.0650254632087,270.4535212141101 M730.0650254632087,270.4535212141101 L729.0143217631478,271.63067150476877 M729.0143217631478,271.63067150476877 L728.4844983865287,272.91927932235643 M728.4844983865287,272.91927932235643 L728.5059537654166,274.2456748428915 M728.5059537654166,274.2456748428915 L729.07762254456,275.53395688677637 M729.07762254456,275.53395688677637 L730.1668332864415,276.7104423203109 M730.1668332864415,276.7104423203109 L731.7114160034735,277.70773704034565 M584.4328080449934,399.92919886251394 L586.2415502622142,400.74309971888437 M586.2415502622142,400.74309971888437 L588.334518766809,401.28477048112626 M588.334518766809,401.28477048112626 L590.5899867089241,401.5226876737734 M590.5899867089241,401.5226876737734 L592.8767766397153,401.44299271124237 M592.8767766397153,401.44299271124237 L595.0618570694726,401.05033251025446 M595.0618570694726,401.05033251025446 L597.0181559523322,400.3675593209269 M597.0181559523322,400.3675593209269 L598.6319119899657,399.4344193293071 M598.6319119899657,399.4344193293071 L599.809351008568,398.30520522283405 M599.809351008568,398.30520522283405 L600.482097392428,397.04560735578804 M600.482097392428,397.04560735578804 L600.6111435236778,395.7288706536062 M600.6111435236778,395.7288706536062 L600.1891211066012,394.431520294453 M600.1891211066012,394.431520294453 L599.2406543067558,393.2289365937243 M599.2406543067558,393.2289365937243 L597.8209489338965,392.19095406658386 M597.8209489338965,392.19095406658386 L596.0125438008057,391.3778289113285 M596.0125438008057,391.3778289113285 L593.9205057860677,390.8367523536348 M593.9205057860677,390.8367523536348 L591.6663295714717,390.59912177762965 M591.6663295714717,390.59912177762965 L589.3809237109132,390.6787171240821 M589.3809237109132,390.6787171240821 L587.1969747703681,391.0709268074811 M587.1969747703681,391.0709268074811 L585.2413177025217,391.7529935391984 M585.2413177025217,391.7529935391984 L583.627556461214,392.6853346172335 M583.627556461214,392.6853346172335 L582.4494664123561,393.81384037059473 M582.4494664123561,393.81384037059473 L581.7755826273435,395.0729810847567 M581.7755826273435,395.0729810847567 L581.6451511715286,396.3896248058341 M581.6451511715286,396.3896248058341 L582.0658855516397,397.687255146934 M582.0658855516397,397.687255146934 L583.0134296515453,398.8904406359052 M583.0134296515453,398.8904406359052 L584.4328080449934,399.92919886251394 M384.6736966343522,515.3884636805482 L386.4849590489651,516.2128741401875 M386.4849590489651,516.2128741401875 L388.58532163570624,516.7615434076619 M388.58532163570624,516.7615434076619 L390.85264677492313,517.0025290797862 M390.85264677492313,517.0025290797862 L393.1550407282298,516.9218088216401 M393.1550407282298,516.9218088216401 L395.3585895729586,516.5240742410673 M395.3585895729586,516.5240742410673 L397.3351268647845,515.8324844669843 M397.3351268647845,515.8324844669843 L398.9697202320117,514.8872954759439 M398.9697202320117,514.8872954759439 L400.16738388890207,513.7435014450537 M400.16738388890207,513.7435014450537 L400.8585601678344,512.4676451287947 M400.8585601678344,512.4676451287947 L401.0031906575873,511.13390582615637 M401.0031906575873,511.13390582615637 L400.5929767668702,509.8198120521586 M400.5929767668702,509.8198120521586 L399.6518841116335,508.6017016748672 M399.6518841116335,508.6017016748672 L398.2346720762736,507.55032181216046 M398.2346720762736,507.55032181216046 L396.42374235100795,506.72670212291166 M396.42374235100795,506.72670212291166 L394.324302235242,506.1786463086907 M394.324302235242,506.1786463086907 L392.0582956038601,505.93794511899875 M392.0582956038601,505.93794511899875 L389.75729137523825,506.0185715280711 M389.75729137523825,506.0185715280711 L387.5549070429547,506.4158391367945 M387.5549070429547,506.4158391367945 L385.57902780666547,507.10670872298397 M385.57902780666547,507.10670872298397 L383.9444381766957,508.0510832802239 M383.9444381766957,508.0510832802239 L382.74612308268723,509.19415520325094 M382.74612308268723,509.19415520325094 L382.05378653744276,510.46955318788616 M382.05378653744276,510.46955318788616 L381.90776722410016,511.80319000089895 M381.90776722410016,511.80319000089895 L382.3166599565279,513.1175768981648 M382.3166599565279,513.1175768981648 L383.25682454591305,514.3362930491303 M383.25682454591305,514.3362930491303 L384.6736966343522,515.3884636805482 M343.97462828495486,478.8994979699917 L344.0210890150781,491.7102905782891 M557.119241994382,356.11243443520726 L557.0899162880339,368.8794427100229 M343.97462828495486,478.8994979699917 L330.34743244005847,473.00332187922646 M330.34743244005847,473.00332187922646 L317.9454419430427,466.2745053851535 M317.9454419430427,466.2745053851535 L306.9206017208713,458.79716833452335 M306.9206017208713,458.79716833452335 L297.4073128494079,450.66455478738635 M297.4073128494079,450.66455478738635 L289.5208550970423,441.97782928698837 M289.5208550970423,441.97782928698837 L283.3559762874838,432.8447462373118 M283.3559762874838,432.8447462373118 L278.9858572134012,423.3782673302116 M278.9858572134012,423.3782673302116 L276.4613273878364,413.6951162639411 M276.4613273878364,413.6951162639411 L275.8103307697889,403.91430116041994 M275.8103307697889,403.91430116041994 L277.0378104237724,394.1556643118544 M277.0378104237724,394.1556643118544 L280.12570708015653,384.53835816930894 M280.12570708015653,384.53835816930894 L285.0333928272821,375.1794586737855 M285.0333928272821,375.1794586737855 L291.6982590715364,366.1925156412149 M291.6982590715364,366.1925156412149 L300.03665532607255,357.68624488732615 M300.03665532607255,357.68624488732615 L309.94496418265066,349.7632362034016 M309.94496418265066,349.7632362034016 L321.30096552662314,342.5187778116073 M321.30096552662314,342.5187778116073 L333.96539330401254,336.03978491914813 M333.96539330401254,336.03978491914813 L347.7836232205462,330.4038008729503 M347.7836232205462,330.4038008729503 L362.58758026628976,325.6781495444284 M362.58758026628976,325.6781495444284 L378.19772161179804,321.9191817720795 M378.19772161179804,321.9191817720795 L394.4251438003765,319.17164485239533 M394.4251438003765,319.17164485239533 L411.0738320830156,317.46822328342796 M411.0738320830156,317.46822328342796 L427.94287761273023,316.82915529157 M427.94287761273023,316.82915529157 L444.828882168223,317.26204135001456 M444.828882168223,317.26204135001456 L461.528201822201,318.76172436357075 M461.528201822201,318.76172436357075 L477.83938277611844,321.3103969754662 M477.83938277611844,321.3103969754662 L493.5654346592102,324.87774646756736 M493.5654346592102,324.87774646756736 L508.5161269253813,329.4213081345305 M508.5161269253813,329.4213081345305 L522.5102180579809,334.88692819657695 M522.5102180579809,334.88692819657695 L535.3775782702664,341.2093359893206 M535.3775782702664,341.2093359893206 L546.9612374873996,348.3128976163508 M546.9612374873996,348.3128976163508 L557.119241994382,356.11243443520726 M567.3622374106917,359.69044029498167 L567.3292782922534,372.4587328834684 M557.119241994382,356.11243443520726 L559.8544540113298,358.08657073400144 M559.8544540113298,358.08657073400144 L561.4076012862571,358.92115163648066 M561.4076012862571,358.92115163648066 L562.8894683778296,359.53706243116466 M562.8894683778296,359.53706243116466 L564.50405821657,359.96291326023237 M564.50405821657,359.96291326023237 L565.4567174861219,360.0702490481764 M565.4567174861219,360.0702490481764 L566.1107816803012,360.0511317336026 M566.1107816803012,360.0511317336026 L566.6625531810964,359.95837426000656 M566.6625531810964,359.95837426000656 L567.0351054266976,359.84386898330837 M567.0351054266976,359.84386898330837 L567.3622374106917,359.69044029498167 M700.1147587978862,283.1746523814004 L700.0351271633614,295.91536942264736 M567.3622374106917,359.69044029498167 L700.1147587978862,283.1746523814004 M655.2756875154762,240.8539278364042 L655.2120192368897,253.57929336494206 M700.1147587978862,283.1746523814004 L702.2314131712327,281.6251512682919 M702.2314131712327,281.6251512682919 L703.7139175330309,279.8485338952173 M703.7139175330309,279.8485338952173 L704.5922797632992,277.9428946691921 M704.5922797632992,277.9428946691921 L704.9179021408725,275.9786183069825 M704.9179021408725,275.9786183069825 L704.6043831131076,273.3521208214195 M704.6043831131076,273.3521208214195 L702.9510360641494,269.51492000150404 M702.9510360641494,269.51492000150404 L699.9496807925352,265.409382796563 M699.9496807925352,265.409382796563 L694.2996204481376,260.06155206385154 M694.2996204481376,260.06155206385154 L686.2549703830318,254.42588333014191 M686.2549703830318,254.42588333014191 L676.0174470440802,248.90498735141477 M676.0174470440802,248.90498735141477 L665.9875920694764,244.58900000117242 M665.9875920694764,244.58900000117242 L655.2756875154762,240.8539278364042 M139.605290550865,536.9405937292611 L127.57856752284852,522.7910746262633 M127.57856752284852,522.7910746262633 L117.35319828896121,508.191143739312 M117.35319828896121,508.191143739312 L108.9778822131176,493.2175679854535 M108.9778822131176,493.2175679854535 L102.49133777066288,477.9486873574821 M102.49133777066288,477.9486873574821 L97.92221893054932,462.4640415432004 M97.92221893054932,462.4640415432004 L95.28911664594949,446.84386484989807 M95.28911664594949,446.84386484989807 L94.60053297865699,431.16864983880754 M94.60053297865699,431.16864983880754 L95.85489783684096,415.51879074771796 M95.85489783684096,415.51879074771796 L99.0407616593094,399.97410856345164 M99.0407616593094,399.97410856345164 L104.13687888656767,384.61349426597485 M104.13687888656767,384.61349426597485 L111.11250017947634,369.5144870604718 M111.11250017947634,369.5144870604718 L119.9274986817278,354.75292404713576 M119.9274986817278,354.75292404713576 L130.53286963811456,340.4025770017518 M130.53286963811456,340.4025770017518 L142.87077837996128,326.5347794955197 M142.87077837996128,326.5347794955197 L156.87520424262414,313.21819400844595 M156.87520424262414,313.21819400844595 L172.47211977587568,300.5183936613548 M172.47211977587568,300.5183936613548 L189.58003426820832,288.4976511998499 M189.58003426820832,288.4976511998499 L208.11044208192266,277.2146866838468 M208.11044208192266,277.2146866838468 L227.96820171440098,266.72435809032174 M227.96820171440098,266.72435809032174 L249.052143061462,257.0775106906096 M249.052143061462,257.0775106906096 L271.25544875680384,248.32070637547946 M271.25544875680384,248.32070637547946 L294.4662905163049,240.49609356414248 M294.4662905163049,240.49609356414248 L318.5683441340602,233.64124404077825 M318.5683441340602,233.64124404077825 L343.4412103625675,227.78894084090274 M343.4412103625675,227.78894084090274 L368.9611684941768,222.96717864247438 M368.9611684941768,222.96717864247438 L395.00158567094616,219.1989003771721 M395.00158567094616,219.1989003771721 L421.43354089978703,216.5020725938037 M421.43354089978703,216.5020725938037 L448.12640869089284,214.8895028763558 M448.12640869089284,214.8895028763558 L474.94839524886095,214.36886404362002 M474.94839524886095,214.36886404362002 L501.76717462344163,214.94261946770683 M501.76717462344163,214.94261946770683 L528.4503917754307,216.6080575627748 M528.4503917754307,216.6080575627748 L554.8663483898749,219.35725681828862 M554.8663483898749,219.35725681828862 L580.8844694157119,223.17713767337938 M580.8844694157119,223.17713767337938 L606.3758921913388,228.04952718535966 M606.3758921913388,228.04952718535966 L631.2141606484653,233.95119601108414 M631.2141606484653,233.95119601108414 L655.2756875154762,240.8539278364042 M139.605290550865,536.9405937292611 L139.72499457289126,549.7718753526071 M214.4223702865798,563.1176274920538 L214.5154501480776,575.9581062070417 M139.605290550865,536.9405937292611 L147.35211328869224,544.269444398565 M147.35211328869224,544.269444398565 L156.52553537892328,551.0236534721438 M156.52553537892328,551.0236534721438 L166.22094829449048,556.5878444101 M166.22094829449048,556.5878444101 L176.23997482544854,560.96690972228 M176.23997482544854,560.96690972228 L185.96893733476503,563.9846045703358 M185.96893733476503,563.9846045703358 L194.97375381727778,565.6487119411968 M194.97375381727778,565.6487119411968 L201.79474801593537,566.0057226529113 M201.79474801593537,566.0057226529113 L206.88548923463028,565.5631428096285 M206.88548923463028,565.5631428096285 L210.8770586045859,564.6390552613243 M210.8770586045859,564.6390552613243 L212.74260370413725,563.9515851005547 M212.74260370413725,563.9515851005547 L214.4223702865798,563.1176274920538 M350.20266587238956,484.85669360300915 L350.24692088324997,497.66959529412145 M214.4223702865798,563.1176274920538 L350.20266587238956,484.85669360300915 M350.20266587238956,484.85669360300915 L350.51300689668386,484.62936573710715 M350.51300689668386,484.62936573710715 L350.7291256467424,484.3680652210632 M350.7291256467424,484.3680652210632 L350.850784145896,484.08716969852827 M350.850784145896,484.08716969852827 L350.87990760995433,483.7982325095936 M350.87990760995433,483.7982325095936 L350.82721683594724,483.5104734951243 M350.82721683594724,483.5104734951243 L350.6622213886478,483.136866428352 M350.6622213886478,483.136866428352 L350.2831017163828,482.6019856120813 M350.2831017163828,482.6019856120813 L349.50806160991164,481.8604528717376 M349.50806160991164,481.8604528717376 L346.96600637737504,480.24072320996953 M346.96600637737504,480.24072320996953 L343.97462828495486,478.8994979699917 M68.83399751953988,477.3365359693186 L70.44713347078613,478.07510645053554 M70.44713347078613,478.07510645053554 L72.32414765848876,478.566627008538 M72.32414765848876,478.566627008538 L74.35586168875994,478.78251614007314 M74.35586168875994,478.78251614007314 L76.42411808285686,478.71019515531356 M76.42411808285686,478.71019515531356 L78.40863228055679,478.353897956985 M78.40863228055679,478.353897956985 L80.19399126685562,477.7343168396106 M80.19399126685562,477.7343168396106 L81.67637147088612,476.8875518912392 M81.67637147088612,476.8875518912392 L82.76966409880316,475.8628454927815 M82.76966409880316,475.8628454927815 L83.41030092637129,474.7198098325664 M83.41030092637129,474.7198098325664 L83.5612094057791,473.5249062732657 M83.5612094057791,473.5249062732657 L83.21367374035651,472.34757814127295 M83.21367374035651,472.34757814127295 L82.3880034510637,471.25622283012314 M82.3880034510637,471.25622283012314 L81.13220358198743,470.3142409406351 M81.13220358198743,470.3142409406351 L79.51932460815357,469.5763065119888 M79.51932460815357,469.5763065119888 L77.64305070230836,469.08527627903857 M77.64305070230836,469.08527627903857 L75.61239064224321,468.86961944029633 M75.61239064224321,468.86961944029633 L73.54526046203841,468.9418614581464 M73.54526046203841,468.9418614581464 L71.56168673236243,469.2977865446395 M71.56168673236243,469.2977865446395 L69.7768670043107,469.9167876067448 M69.7768670043107,469.9167876067448 L68.29450132035095,470.7628974795322 M68.29450132035095,470.7628974795322 L67.2006951484343,471.7870238315944 M67.2006951484343,471.7870238315944 L66.55913434936775,472.92968736343016 M66.55913434936775,472.92968736343016 L66.40710315673749,474.124511960425 M66.40710315673749,474.124511960425 L66.75357455421948,475.30207238524093 M66.75357455421948,475.30207238524093 L67.57848282470621,476.3939180343834 M67.57848282470621,476.3939180343834 L68.83399751953988,477.3365359693186 M68.92430954842644,485.34080125698694 L68.83399751953988,477.3365359693186 M144.43907083100152,581.6354384059791 L146.0646550636105,582.3825802668197 M146.0646550636105,582.3825802668197 L147.95458594999627,582.8798253038183 M147.95458594999627,582.8798253038183 L149.99897271921003,583.0982211758069 M149.99897271921003,583.0982211758069 L152.07890653328195,583.0250662614562 M152.07890653328195,583.0250662614562 L154.0734177947598,582.6646088043664 M154.0734177947598,582.6646088043664 L155.86647771321003,582.0378551385013 M155.86647771321003,582.0378551385013 L157.35388858577784,581.1812434591054 M157.35388858577784,581.1812434591054 L158.44914359247753,580.1446501621657 M158.44914359247753,580.1446501621657 L159.08869918997388,578.9883372113537 M159.08869918997388,578.9883372113537 L159.23542270915922,577.7795570704133 M159.23542270915922,577.7795570704133 L158.88090170441734,576.5885630923619 M158.88090170441734,576.5885630923619 L158.0458126678115,575.4845542155659 M158.0458126678115,575.4845542155659 L156.77880049945713,574.5316279697466 M156.77880049945713,574.5316279697466 L155.1534520389842,573.7851487426435 M155.1534520389842,573.7851487426435 L153.26427209031317,573.2884026101991 M153.26427209031317,573.2884026101991 L151.220952513261,573.0702430877113 M151.220952513261,573.0702430877113 L149.14215765872166,573.1433176624278 M149.14215765872166,573.1433176624278 L147.14859620295948,573.5033964852433 M147.14859620295948,573.5033964852433 L145.35607934136078,574.129559986779 M145.35607934136078,574.129559986779 L143.86868037574726,574.9855051388719 M143.86868037574726,574.9855051388719 L142.77290339790687,576.0215082660523 M142.77290339790687,576.0215082660523 L142.1324115226546,577.1774425876338 M142.1324115226546,577.1774425876338 L141.9845519144336,578.3861423888058 M141.9845519144336,578.3861423888058 L142.33799728263324,579.5773727186534 M142.33799728263324,579.5773727186534 L143.17231755659077,580.6818804905865 M143.17231755659077,580.6818804905865 L144.43907083100152,581.6354384059791 M144.51296791344373,589.6626596605703 L144.43907083100152,581.6354384059791 M710.8241881849898,255.5754179931088 L712.4434801786738,256.29590153451244 M712.4434801786738,256.29590153451244 L714.3146655070633,256.7754140201605 M714.3146655070633,256.7754140201605 L716.3289692519995,256.9860213972847 M716.3289692519995,256.9860213972847 L718.3692339681603,256.91547536418744 M718.3692339681603,256.91547536418744 L720.3167987441497,256.56787254255596 M720.3167987441497,256.56787254255596 L722.0583684109824,255.96346957639025 M722.0583684109824,255.96346957639025 L723.4927387483906,255.13740436047482 M723.4927387483906,255.13740436047482 L724.5364894552739,254.1377737277588 M724.5364894552739,254.1377737277588 L725.1290680387259,253.02268995626605 M725.1290680387259,253.02268995626605 L725.2360714707396,251.8570070134645 M725.2360714707396,251.8570070134645 L724.8513920175047,250.7084733589619 M724.8513920175047,250.7084733589619 L723.9974554138366,249.64382125975257 M723.9974554138366,249.64382125975257 L722.7239708753059,248.7248789022516 M722.7239708753059,248.7248789022516 L721.1049776269914,248.0049932777727 M721.1049776269914,248.0049932777727 L719.2345314964938,247.52595325484253 M719.2345314964938,247.52595325484253 L717.2212640170529,247.31556970074502 M717.2212640170529,247.31556970074502 L715.182095232387,247.38603965219167 M715.182095232387,247.38603965219167 L713.2354349895736,247.73328390708613 M713.2354349895736,247.73328390708613 L711.4943712348819,248.3371279875075 M711.4943712348819,248.3371279875075 L710.0599922957334,249.16256200192606 M710.0599922957334,249.16256200192606 L709.0157204441589,250.1616337437542 M709.0157204441589,250.1616337437542 L708.4222275548855,251.2763589532847 M708.4222275548855,251.2763589532847 L708.3141261178462,252.4419658143084 M708.3141261178462,252.4419658143084 L708.6977754059731,253.59072329401266 M708.6977754059731,253.59072329401266 L709.5509856885928,254.65584784702324 M709.5509856885928,254.65584784702324 L710.8241881849898,255.5754179931088 M710.7721527297496,263.52998009249995 L710.8241881849898,255.5754179931088 M533.609982128609,211.94871683545963 L535.2181282000786,212.66569085209665 M535.2181282000786,212.66569085209665 L537.0799857601946,213.1428384275126 M537.0799857601946,213.1428384275126 L539.0872591599256,213.35241443492015 M539.0872591599256,213.35241443492015 L541.1232130262499,213.28220830017298 M541.1232130262499,213.28220830017298 L543.0694435364624,212.9363300192984 M543.0694435364624,212.9363300192984 L544.8127645558611,212.33486634321082 M544.8127645558611,212.33486634321082 L546.2517995596022,211.51286103220198 M546.2517995596022,211.51286103220198 L547.3029590003466,210.51811580576558 M547.3029590003466,210.51811580576558 L547.9051245908577,209.40849915545715 M547.9051245908577,209.40849915545715 L548.0234569124859,208.24852885450449 M548.0234569124859,208.24852885450449 L547.6511311761537,207.1056179433004 M547.6511311761537,207.1056179433004 L546.8098940243633,206.04616461645168 M546.8098940243633,206.04616461645168 L545.5486533313112,205.1317167778806 M545.5486533313112,205.1317167778806 L543.9407726484585,204.41535112642617 M543.9407726484585,204.41535112642617 L542.0796460037673,203.93867253219707 M542.0796460037673,203.93867253219707 L540.0734015772541,203.72931870586964 M540.0734015772541,203.72931870586964 L538.0385390232768,203.79944931113945 M538.0385390232768,203.79944931113945 L536.0932121707569,204.14497167821892 M536.0932121707569,204.14497167821892 L534.3504001225785,204.74588054886152 M534.3504001225785,204.74588054886152 L532.911362814298,205.56725929974658 M532.911362814298,205.56725929974658 L531.8596903211494,206.5614497292244 M531.8596903211494,206.5614497292244 L531.2566184547995,207.67071044991266 M531.2566184547995,207.67071044991266 L531.1371942653191,208.83060522579066 M531.1371942653191,208.83060522579066 L531.5084926628651,209.97373831810478 M531.5084926628651,209.97373831810478 L532.3490023491107,211.03366063851885 M532.3490023491107,211.03366063851885 L533.609982128609,211.94871683545963 M533.5969653320492,219.89335775263373 L533.609982128609,211.94871683545963 M507.14260177383863,222.37050315019252 L507.14981267226614,214.42529777172714 M567.0086146237268,220.08583220777763 L547.2324286748194,217.60088158232102 M547.2324286748194,217.60088158232102 L527.2617187017053,215.7124262773663 M527.2617187017053,215.7124262773663 L507.14981267226614,214.42529777172714 M566.9882588964974,228.03232716337095 L567.0086146237268,220.08583220777763 M683.1054200645113,256.63078394663535 L683.1513497608033,248.6777873103689 M731.7681041718415,269.74996162719776 L716.1977586816241,262.2387601878967 M716.1977586816241,262.2387601878967 L699.9774218683467,255.20858797448403 M699.9774218683467,255.20858797448403 L683.1513497608033,248.6777873103689 M731.7114160034735,277.70773704034565 L731.7681041718415,269.74996162719776 M747.1921573769995,286.0254870814359 L747.2883707600913,273.28834987314775 M747.2883707600913,273.28834987314775 L727.9118029692265,263.0220671200667 M727.9118029692265,263.0220671200667 L707.3901208743571,253.53886738599581 M707.3901208743571,253.53886738599581 L685.8176736668345,244.88025747323226 M685.8176736668345,244.88025747323226 L663.2930861934706,237.08403091056852 M663.2930861934706,237.08403091056852 L639.9188862881376,230.18409092976827 M639.9188862881376,230.18409092976827 L615.8010058383898,224.2103988584202 M615.8010058383898,224.2103988584202 L591.0484279116587,219.1887869149741 M591.0484279116587,219.1887869149741 L565.7725788935514,215.14100058469313 M565.7725788935514,215.14100058469313 L540.0870413222842,212.0844671747317 M540.0870413222842,212.0844671747317 L514.1070025894655,210.03236309246535 M514.1070025894655,210.03236309246535 L487.94881979726455,208.99354384992915 M487.94881979726455,208.99354384992915 L461.72955687787226,208.97246304885888 M461.72955687787226,208.97246304885888 L435.5665247682892,209.96921751440664 M435.5665247682892,209.96921751440664 L409.5767832753001,211.9795028491328 M409.5767832753001,211.9795028491328 L383.87677232294396,214.9946950116239 M383.87677232294396,214.9946950116239 L358.5817061292673,219.0017755211765 M358.5817061292673,219.0017755211765 L333.80521014650566,223.98345000434955 M333.80521014650566,223.98345000434955 L309.65889939694955,229.9182301170968 M309.65889939694955,229.9182301170968 L286.25195491939735,236.7805650230464 M271.0600368838572,254.62453429968156 L278.82281839453304,245.8446021461884 M278.82281839453304,245.8446021461884 L286.25195491939735,236.7805650230464 M578.661703608398,375.3583751018367 L578.6755772510819,370.5677412702403 M635.2484181741055,342.70254359991554 L578.661703608398,375.3583751018367 M635.2128358849628,350.676778488535 L635.2484181741055,342.70254359991554 M747.2883707600913,273.28834987314775 L578.6755772510819,370.5677412702403 M614.773200221576,392.6208725034109 L614.8043356705267,384.6372359279035 M635.2484181741055,342.70254359991554 L627.903888041882,347.6091823532382 M627.903888041882,347.6091823532382 L621.873318793627,353.080635937667 M621.873318793627,353.080635937667 L617.2841236343091,359.0029029045795 M617.2841236343091,359.0029029045795 L614.2338835352082,365.25234279611334 M614.2338835352082,365.25234279611334 L612.7881841265556,371.69821841448424 M612.7881841265556,371.69821841448424 L612.9790699266999,378.20542613136723 M612.9790699266999,378.20542613136723 L614.8043356705267,384.6372359279035 M614.9152157853991,384.9060938504168 L614.8783803735608,384.8164597533625 M614.8783803735608,384.8164597533625 L614.8414285231387,384.7268350781278 M614.8414285231387,384.7268350781278 L614.8043356705267,384.6372359279035 M614.8840552989959,392.88979056311854 L614.9152157853991,384.9060938504168 M571.0898907836755,396.04914267365706 L574.8008089116105,398.4848538884631 M574.8008089116105,398.4848538884631 L579.3782110856348,400.37014860638004 M579.3782110856348,400.37014860638004 L584.5797609847732,401.6049293706721 M584.5797609847732,401.6049293706721 L590.129838614144,402.1236122538524 M590.129838614144,402.1236122538524 L595.7342314022405,401.89863393156526 M595.7342314022405,401.89863393156526 L601.0958344328471,400.94194588211514 M601.0958344328471,400.94194588211514 L605.9304715506804,399.3043784298498 M605.9304715506804,399.3043784298498 L609.9821014623323,397.0728939174237 M609.9821014623323,397.0728939174237 L613.0363873656283,394.3659079348812 M613.0363873656283,394.3659079348812 L614.9320447654457,391.3269707180886 M614.9320447654457,391.3269707180886 L615.5693383753259,388.11707609689626 M615.5693383753259,388.11707609689626 L614.9152157853991,384.9060938504168 M571.0684284781048,404.0353302520103 L571.0898907836755,396.04914267365706 M571.0898907836755,396.04914267365706 L567.7885853694031,387.570809075502 M567.7885853694031,387.570809075502 L562.9660871738702,379.3435073406892 M562.9660871738702,379.3435073406892 L556.6774158262489,371.4571734728266 M556.6774158262489,371.4571734728266 L548.9934025160344,363.9977961699857 M548.9934025160344,363.9977961699857 L549.0033259406664,359.20869115683877 M549.0033259406664,359.20869115683877 L539.1639230691244,351.67785355940975 M539.1639230691244,351.67785355940975 L527.9054100628936,344.84411112255253 M527.9054100628936,344.84411112255253 L515.3747420702546,338.79487762318865 M515.3747420702546,338.79487762318865 L501.7347757989538,333.6073650151573 M501.7347757989538,333.6073650151573 L487.1622144878487,329.3476586854379 M487.1622144878487,329.3476586854379 L471.8453293442443,326.06995002788847 M471.8453293442443,326.06995002788847 L455.9816241143165,323.8158682804818 M455.9816241143165,323.8158682804818 L439.7753579726485,322.6140275292516 M439.7753579726485,322.6140275292516 L423.43498796006224,322.4796664791051 M423.43498796006224,322.4796664791051 L407.17067953121426,323.4144913144859 M407.17067953121426,323.4144913144859 L391.19160313281,325.4066430151872 M391.19160313281,325.4066430151872 L375.70345629948866,328.43084732154455 M375.70345629948866,328.43084732154455 L360.90584714085867,332.4486882311823 M360.90584714085867,332.4486882311823 L346.98987093394834,337.4090977932261 M346.98987093394834,337.4090977932261 L334.1356355984589,343.24888530148917 M334.1356355984589,343.24888530148917 L322.5100760163747,349.89356282979384 M322.5100760163747,349.89356282979384 L312.264749012239,357.25818017603774 M312.264749012239,357.25818017603774 L303.53385160190095,365.2483500971693 M303.53385160190095,365.2483500971693 L296.4325298993735,373.7614312331191 M296.4325298993735,373.7614312331191 L291.05517608047285,382.6877326646032 M291.05517608047285,382.6877326646032 L287.47422583364414,391.9119213141087 M287.47422583364414,391.9119213141087 L285.7390235689162,401.31443640903035 M285.7390235689162,401.31443640903035 L285.8750770596905,410.7730516417007 M285.8750770596905,410.7730516417007 L287.8835547833188,420.16439045374057 M287.8835547833188,420.16439045374057 L291.7411393792194,429.3656009195299 M291.7411393792194,429.3656009195299 L297.4001481735895,438.25593005811896 M297.4001481735895,438.25593005811896 L304.7890646895131,446.71835392969285 M304.7890646895131,446.71835392969285 L313.8132935454868,454.6411697106962 M313.8132935454868,454.6411697106962 L324.3563554590721,461.9195057807109 M324.3563554590721,461.9195057807109 L336.28131708709117,468.4567908002584 M336.28131708709117,468.4567908002584 L349.43255356643897,474.1660768899169 M349.44924600491083,478.97056567015187 L349.43255356643897,474.1660768899169 M349.44924600491083,478.97056567015187 L362.47694847791416,483.42533325170336 M362.47694847791416,483.42533325170336 L376.25133908988397,487.0649033543376 M376.25133908988397,487.0649033543376 L390.61897187473943,489.84813339228424 M390.61897187473943,489.84813339228424 L405.4195454792623,491.74351319833033 M405.43489931192823,499.7509654438027 L405.4195454792623,491.74351319833033 M405.4195454792623,491.74351319833033 L409.66377759685594,493.8955261841131 M409.66377759685594,493.8955261841131 L412.94543592635495,496.55374339167804 M412.94543592635495,496.55374339167804 L415.0907099136767,499.57794063343 M415.0907099136767,499.57794063343 L415.9856478500237,502.808435993023 M415.9856478500237,502.808435993023 L415.58225140383627,506.0744835420464 M415.58225140383627,506.0744835420464 L413.90116890929556,509.20327959849266 M413.90116890929556,509.20327959849266 L411.0307593414547,512.0290937212312 M411.0307593414547,512.0290937212312 L407.1225171386278,514.402115373201 M407.1225171386278,514.402115373201 L402.3831169533856,516.1964262252748 M402.3831169533856,516.1964262252748 L397.063535771681,517.3167466039469 M397.063535771681,517.3167466039469 L391.4456794095092,517.7035660248619 M391.4456794095092,517.7035660248619 L385.8273612358057,517.3363261702494 M385.8471104675427,525.3494271272889 L385.8273612358057,517.3363261702494 M385.8273612358057,517.3363261702494 L385.67055435257396,517.3152248080398 M385.67055435257396,517.3152248080398 L385.513763095917,517.2940552404078 M385.513763095917,517.2940552404078 L385.3570157293595,517.2728030478527 M385.3768698877015,525.2858900044528 L385.3570157293595,517.2728030478527 M311.66432661499,529.44085579485 L311.7006557799673,537.4566227582769 M385.3570157293595,517.2728030478527 L374.0991752852844,516.2359679140553 M374.0991752852844,516.2359679140553 L362.6964731895371,516.1538511211959 M362.6964731895371,516.1538511211959 L351.38667146108435,517.0281310145422 M351.38667146108435,517.0281310145422 L340.4055593885231,518.8407342690433 M340.4055593885231,518.8407342690433 L329.9822763371514,521.5541301413128 M329.9822763371514,521.5541301413128 L320.3345740410805,525.1120985674354 M320.3345740410805,525.1120985674354 L311.66432661499,529.44085579485 M369.22761752161915,496.22144832491824 L311.66432661499,529.44085579485 M369.22761752161915,496.22144832491824 L369.2135560546465,491.41466823670055 M369.2135560546465,491.41466823670055 L196.43482626378307,591.0975530915783 M196.53450252648594,603.9478323407079 L196.43482626378307,591.0975530915783 M136.41340808739454,321.78312418588087 L124.06508221763363,335.243508873702 M124.06508221763363,335.243508873702 L113.31680704000934,349.16616067232115 M113.31680704000934,349.16616067232115 L104.22222684064059,363.48857632199616 M104.22222684064059,363.48857632199616 L96.82708197962722,378.1459247501788 M96.82708197962722,378.1459247501788 L91.16959884728033,393.07151592775006 M91.16959884728033,393.07151592775006 L87.28022982736809,408.19713410498497 M87.28022982736809,408.19713410498497 L85.18143345804316,423.45329157228673 M85.18143345804316,423.45329157228673 L84.88754060125854,438.7695130283518 M84.88754060125854,438.7695130283518 L86.40450891945852,454.07471997965024 M86.40450891945852,454.07471997965024 L89.72990251570167,469.2974945965806 M89.72990251570167,469.2974945965806 L94.85273680849537,484.36647458356276 M94.85273680849537,484.36647458356276 L101.75351319560258,499.2106347715168 M101.75351319560258,499.2106347715168 L110.40420986740389,513.7596576476342 M110.40420986740389,513.7596576476342 L120.76832483676708,527.9443241062244 M120.76832483676708,527.9443241062244 L132.8009221888912,541.6968160565809 M132.8009221888912,541.6968160565809 L146.44891962309183,554.9510683094652 M146.44891962309183,554.9510683094652 L161.65113167196733,567.6431327219696 M161.65113167196733,567.6431327219696 L178.33860353327637,579.7115237732838 M178.33860353327637,579.7115237732838 L196.43482626378307,591.0975530915783 M181.88107438137988,594.8453210826738 L181.81553191374047,586.8169663987662 M144.78150236085503,558.2126023029866 L156.2378854694716,568.1156213977732 M156.2378854694716,568.1156213977732 L168.59378071843165,577.659600922462 M168.59378071843165,577.659600922462 L181.81553191374047,586.8169663987662 M144.85522734147338,566.2346916634472 L144.78150236085503,558.2126023029866 M95.28379282551049,497.91006495233574 L95.19929447876859,489.9030195552625 M85.87515855896442,454.8027721694139 L87.9109145015201,466.58438892564584 M87.9109145015201,466.58438892564584 L91.02114296764233,478.2954021770894 M91.02114296764233,478.2954021770894 L95.19929447876859,489.9030195552625 M85.96156669791867,462.8020424859776 L85.87515855896442,454.8027721694139 M136.41340808739454,321.78312418588087 L140.83715621619376,324.1331481343735 M140.83715621619376,324.1331481343735 L145.7046417170589,325.77390369056445 M167.1906578485208,594.8359599413211 L167.121822684647,586.807607304063 M181.81553191374047,586.8169663987662 L180.05527539844667,585.9104258622342 M180.05527539844667,585.9104258622342 L177.97161707056125,585.2751527154609 M177.97161707056125,585.2751527154609 L175.68374790866798,584.9473862956337 M175.68374790866798,584.9473862956337 L173.32235434966168,584.945887947685 M173.32235434966168,584.945887947685 L171.02243904385574,585.2707185306693 M171.02243904385574,585.2707185306693 L168.9154331958208,585.9033401631073 M168.9154331958208,585.9033401631073 L167.121822684647,586.807607304063 M140.76818469421562,566.439838880925 L136.36468274585906,568.1140784603576 M136.36468274585906,568.1140784603576 L132.7382491211622,570.3331424973377 M132.7382491211622,570.3331424973377 L130.08708354429712,572.9761270458966 M130.08708354429712,572.9761270458966 L128.55632555870238,575.898928084822 M128.55632555870238,575.898928084822 L128.2301811239206,578.9420013477934 M128.2301811239206,578.9420013477934 L129.12697711647462,581.9391591121038 M129.12697711647462,581.9391591121038 L131.19834690487482,584.7264770809619 M131.19834690487482,584.7264770809619 L134.33151042816615,587.1514027127577 M134.33151042816615,587.1514027127577 L138.3553900297872,589.0811263031253 M138.3553900297872,589.0811263031253 L143.0500684861745,590.4098307508103 M143.0500684861745,590.4098307508103 L148.15864690168567,591.064646340395 M148.15864690168567,591.064646340395 L153.40140886253369,591.0096741890959 M153.40140886253369,591.0096741890959 L158.49134547576253,590.2478946446695 M158.49134547576253,590.2478946446695 L163.1497658800031,588.8211299358652 M163.1497658800031,588.8211299358652 L167.121822684647,586.807607304063 M140.84284151837204,574.4637323573785 L140.76818469421562,566.439838880925 M140.76818469421562,566.439838880925 L142.7485524816322,565.682438095395 M142.7485524816322,565.682438095395 L144.36766690615082,564.6753754604817 M144.36766690615082,564.6753754604817 L145.53291697578885,563.4763385252371 M145.53291697578885,563.4763385252371 L146.17774793163332,562.1539512213656 M146.17774793163332,562.1539512213656 L146.2653638231608,560.783910518284 M146.2653638231608,560.783910518284 L145.7908445633864,559.4446127096958 M145.7908445633864,559.4446127096958 L144.78150236085503,558.2126023029866 M82.46583037398767,493.9411124663787 L82.37849357396448,485.9349445129717 M95.19929447876859,489.9030195552625 L94.39147391205154,488.63211358113705 M94.39147391205154,488.63211358113705 L93.08311855248269,487.51242312532713 M93.08311855248269,487.51242312532713 L91.34911967729397,486.60791371693506 M91.34911967729397,486.60791371693506 L89.28865176000926,485.970267900358 M89.28865176000926,485.970267900358 L87.01950523049112,485.63589301960457 M87.01950523049112,485.63589301960457 L84.67138186752243,485.62389162143506 M84.67138186752243,485.62389162143506 L82.37849357396448,485.9349445129717 M75.75773595541534,460.9500890381745 L70.56988246366689,461.23609323690414 M70.56988246366689,461.23609323690414 L65.62269839637679,462.2095202688458 M65.62269839637679,462.2095202688458 L61.18602030636663,463.8173824728762 M61.18602030636663,463.8173824728762 L57.50203347061648,465.9721321539064 M57.50203347061648,465.9721321539064 L54.77203294700206,468.556393811986 M54.77203294700206,468.556393811986 L53.1454545929177,471.42924812406994 M53.1454545929177,471.42924812406994 L52.71162923990863,474.43395111114154 M52.71162923990863,474.43395111114154 L53.4949164924742,477.40633451813557 M53.4949164924742,477.40633451813557 L55.45300899304243,480.1839149129399 M55.45300899304243,480.1839149129399 L58.479381228189766,482.6146507732662 M58.479381228189766,482.6146507732662 L62.40887045296864,484.56540970386015 M62.40887045296864,484.56540970386015 L67.02664740641353,485.9292731640405 M67.02664740641353,485.9292731640405 L72.08005077168042,486.6314362812601 M72.08005077168042,486.6314362812601 L77.2924664272856,486.6333600909634 M77.2924664272856,486.6333600909634 L82.37849357396448,485.9349445129717 M75.84642509186807,468.95072325187186 L75.75773595541534,460.9500890381745 M75.75773595541534,460.9500890381745 L78.09467148996492,460.81754165847286 M78.09467148996492,460.81754165847286 L80.31726840426018,460.36851685539267 M80.31726840426018,460.36851685539267 L82.29830665989039,459.6287225688076 M82.29830665989039,459.6287225688076 L83.92441831781241,458.6405680537685 M83.92441831781241,458.6405680537685 L85.10255725647573,457.4606388698361 M85.10255725647573,457.4606388698361 L85.76540875435302,456.15649802244417 M85.76540875435302,456.15649802244417 L85.87515855896442,454.8027721694139 M136.41340808739454,321.78312418588087 L140.2330610575965,317.673288812531 M140.2330610575965,317.673288812531 L143.6772068868782,313.46224875836145 M143.6772068868782,313.46224875836145 L146.80346789585582,309.17359162337397 M146.80346789585582,309.17359162337397 L149.66841982188342,304.8284053727812 M149.66841982188342,304.8284053727812 L152.33254808716623,300.4387526366922 M152.33254808716623,300.4387526366922 L154.85287809669393,296.0239863037168 M154.85287809669393,296.0239863037168 L159.76347687710953,287.17725567244474 M159.76347687710953,287.17725567244474 L165.51407687477865,277.83285869493363 M165.51407687477865,277.83285869493363 L170.33046420630356,271.7087219350228 M170.33046420630356,271.7087219350228 L175.9073356632901,266.45192360827775 M175.9073356632901,266.45192360827775 L182.31139926876165,262.1627831751664 M182.31139926876165,262.1627831751664 L190.3440260553851,258.4076874462569 M190.3440260553851,258.4076874462569 L200.10319169316494,255.21293163584636 M200.10319169316494,255.21293163584636 L212.78509761167956,252.19294369441369 M212.78509761167956,252.19294369441369 L224.888441137485,249.88403437062433 M224.888441137485,249.88403437062433 L237.08321147605426,247.7482895807417 M237.08321147605426,247.7482895807417 L249.70415933343395,245.485993181154 M249.70415933343395,245.485993181154 L262.19345065220205,243.00343718047435 M262.19345065220205,243.00343718047435 L274.4316179597973,240.14891080910814 M274.4316179597973,240.14891080910814 L280.40758247486195,238.53698839398473 M280.40758247486195,238.53698839398473 L286.25195491939735,236.7805650230464 M517.6217127988665,216.75769462878387 L517.631221244807,208.81376844525022 M507.14981267226614,214.42529777172714 L509.4615094340124,214.3800121035352 M509.4615094340124,214.3800121035352 L511.68753240041104,214.02313254224774 M511.68753240041104,214.02313254224774 L513.7004631638531,213.37511037423988 M513.7004631638531,213.37511037423988 L515.3850829949965,212.47306394656772 M515.3850829949965,212.47306394656772 L516.645037892666,211.36868050190463 M516.645037892666,211.36868050190463 L517.4082596249937,210.12519369250552 M517.4082596249937,210.12519369250552 L517.631221244807,208.81376844525022 M560.219390054796,212.83961912994772 L561.3939476459931,209.99387673272264 M561.3939476459931,209.99387673272264 L561.3763269130357,207.06961091495913 M561.3763269130357,207.06961091495913 L560.168059458373,204.2266015200977 M560.168059458373,204.2266015200977 L557.835707464512,201.62002335118396 M557.835707464512,201.62002335118396 L554.5070592586657,199.39203413294234 M554.5070592586657,199.39203413294234 L550.3640657221661,197.66406467373477 M550.3640657221661,197.66406467373477 L545.632905176348,196.53021083220912 M545.632905176348,196.53021083220912 L540.5717317989802,196.0521676592921 M540.5717317989802,196.0521676592921 L535.4564760315352,196.25599079764706 M535.4564760315352,196.25599079764706 L530.5661313640919,197.13055214544707 M530.5661313640919,197.13055214544707 L526.1673790869515,198.6282694684724 M526.1673790869515,198.6282694684724 L522.5003254709948,200.667600796175 M522.5003254709948,200.667600796175 L519.7652969901935,203.13744857803354 M519.7652969901935,203.13744857803354 L518.1119919178948,205.90314246246822 M518.1119919178948,205.90314246246822 L517.631221244807,208.81376844525022 M560.2005326568533,220.78446311866733 L560.219390054796,212.83961912994772 M560.219390054796,212.83961912994772 L559.6962024536299,214.12295655991232 M559.6962024536299,214.12295655991232 L559.7229717903137,215.44143478206382 M559.7229717903137,215.44143478206382 L560.298294310182,216.71962285766824 M560.298294310182,216.71962285766824 L561.3893491069932,217.88436749226312 M561.3893491069932,217.88436749226312 L562.9338061383562,218.86898886146886 M562.9338061383562,218.86898886146886 L564.8433090465473,219.61709708920685 M564.8433090465473,219.61709708920685 L567.0086146237268,220.08583220777763 M696.9864897239019,254.46283702523917 L697.0354667406976,246.51033255017455 M683.1513497608033,248.6777873103689 L685.2422018410916,249.25692783969822 M685.2422018410916,249.25692783969822 L687.5107744539652,249.53691501290285 M687.5107744539652,249.53691501290285 L689.8272511706708,249.50167424520336 M689.8272511706708,249.50167424520336 L692.058965223024,249.15324321749893 M692.058965223024,249.15324321749893 L694.0781261535847,248.5115972945177 M694.0781261535847,248.5115972945177 L695.769212588944,247.61347896560918 M695.769212588944,247.61347896560918 L697.0354667406976,246.51033255017455 M731.6330392324771,261.4992207165266 L734.9981796340996,259.2895754611261 M734.9981796340996,259.2895754611261 L737.3664450544717,256.69030161392044 M737.3664450544717,256.69030161392044 L738.6088006463141,253.84367950717842 M738.6088006463141,253.84367950717842 L738.6578271344666,250.9054340322816 M738.6578271344666,250.9054340322816 L737.5114866835252,248.03608985797175 M737.5114866835252,248.03608985797175 L735.232894507591,245.39230988875448 M735.232894507591,245.39230988875448 L731.9468993261994,243.11829687889144 M731.9468993261994,243.11829687889144 L727.8332143249523,241.3379439192105 M727.8332143249523,241.3379439192105 L723.116408970882,240.14823626634572 M723.116408970882,240.14823626634572 L718.0538061948574,239.61393973466994 M718.0538061948574,239.61393973466994 L712.9215409606732,239.7640913531357 M712.9215409606732,239.7640913531357 L707.9993807277732,240.59057179099037 M707.9993807277732,240.59057179099037 L703.5558402040562,242.04836650945526 M703.5558402040562,242.04836650945526 L699.8334131544759,244.05811791094044 M699.8334131544759,244.05811791094044 L697.0354667406976,246.51033255017455 M731.5764070424202,269.45512632321345 L731.6330392324771,261.4992207165266 M731.6330392324771,261.4992207165266 L730.1213281258943,262.4973893100969 M730.1213281258943,262.4973893100969 L729.0703968393908,263.67427281816924 M729.0703968393908,263.67427281816924 L728.5404608732799,264.9625886323364 M728.5404608732799,264.9625886323364 L728.5619251439308,266.28868362947145 M728.5619251439308,266.28868362947145 L729.133723849602,267.576673827004 M729.133723849602,267.576673827004 L730.2231781506298,268.7528927763278 M730.2231781506298,268.7528927763278 L731.7681041718415,269.74996162719776 M584.4328080449934,399.92919886251394 L584.457228749176,391.94392858752065 M584.457228749176,391.94392858752065 L586.266373148717,392.75764758659795 M586.266373148717,392.75764758659795 L588.3598065160492,393.2991973274729 M588.3598065160492,393.2991973274729 L590.6157749473984,393.5370613663881 M590.6157749473984,393.5370613663881 L592.9030718609174,393.4573842085713 M592.9030718609174,393.4573842085713 L595.0886362476313,393.0648117343989 M595.0886362476313,393.0648117343989 L597.0453678958731,392.38219109702334 M597.0453678958731,392.38219109702334 L598.6594803293809,391.4492596154192 M598.6594803293809,391.4492596154192 L599.8371786646675,390.3202978604738 M599.8371786646675,390.3202978604738 L600.5100722396304,389.060981519692 M600.5100722396304,389.060981519692 L600.6391449239159,387.7445391564989 M600.6391449239159,387.7445391564989 L600.2170269338958,386.4474788446796 M600.2170269338958,386.4474788446796 L599.2683480356659,385.2451640415441 M599.2683480356659,385.2451640415441 L597.848326401327,384.2074136359273 M597.848326401327,384.2074136359273 L596.0395192365055,383.3944703364834 M596.0395192365055,383.3944703364834 L593.9470167710292,382.85351479986184 M593.9470167710292,382.85351479986184 L591.6923406420256,382.6159373763059 M591.6923406420256,382.6159373763059 L589.4064284106786,382.69551491896976 M589.4064284106786,382.69551491896976 L587.2219960158858,383.0876368756785 M587.2219960158858,383.0876368756785 L585.2659064658624,383.76955105658317 M585.2659064658624,383.76955105658317 L583.6517888252189,384.70168362612867 M583.6517888252189,384.70168362612867 L582.4734391703414,385.82993702952547 M582.4734391703414,385.82993702952547 L581.7994076875844,387.0887962190316 M581.7994076875844,387.0887962190316 L581.6689490659601,388.40514560056266 M581.6689490659601,388.40514560056266 L582.0897784466433,389.7024858945291 M582.0897784466433,389.7024858945291 L583.0375342381158,390.90540248391727 M583.0375342381158,390.90540248391727 L584.457228749176,391.94392858752065 M384.6736966343522,515.3884636805482 L384.65369643560064,507.37755884536773 M384.65369643560064,507.37755884536773 L386.4653621553064,508.201787451825 M386.4653621553064,508.201787451825 L388.56619289748977,508.7503356999979 M388.56619289748977,508.7503356999979 L390.8340238012247,508.991268220562 M390.8340238012247,508.991268220562 L393.1369316819785,508.910565765836 M393.1369316819785,508.910565765836 L395.34097269892743,508.51291891077057 M395.34097269892743,508.51291891077057 L397.3179517590691,507.82148168506814 M397.3179517590691,507.82148168506814 L398.9529107900509,506.8765011995258 M398.9529107900509,506.8765011995258 L400.15084275739133,505.73295951525773 M400.15084275739133,505.73295951525773 L400.8421744229035,504.45738471966894 M400.8421744229035,504.45738471966894 L400.9868383914747,503.1239397527224 M400.9868383914747,503.1239397527224 L400.5765341765725,501.8101360219446 M400.5765341765725,501.8101360219446 L399.63523269656434,500.59229454079036 M399.63523269656434,500.59229454079036 L398.2177055046686,499.54114679817945 M398.2177055046686,499.54114679817945 L396.40637262196975,498.71770896398573 M396.40637262196975,498.71770896398573 L394.30646476328843,498.1697741696629 M394.30646476328843,498.1697741696629 L392.0399529542111,497.9291261331688 M392.0399529542111,497.9291261331688 L389.738435419731,498.00973473763503 M389.738435419731,498.00973473763503 L387.53555943409594,498.4069146207086 M387.53555943409594,498.4069146207086 L385.5592387235313,499.09763165659734 M385.5592387235313,499.09763165659734 L383.9242834323089,500.04179770640997 M383.9242834323089,500.04179770640997 L382.725699738241,501.18461728131837 M382.725699738241,501.18461728131837 L382.0332072903909,502.45973374323415 M382.0332072903909,502.45973374323415 L381.88715387724426,503.79307622127607 M381.88715387724426,503.79307622127607 L382.29613634526,505.10717307505246 M382.29613634526,505.10717307505246 L383.23650934314423,506.3256203321723 M383.23650934314423,506.3256203321723 L384.65369643560064,507.37755884536773 M549.0033259406664,359.20869115683877 L556.9388539677868,365.1920629183494 M556.9388539677868,365.1920629183494 L563.140672608029,368.72295381184614 M563.140672608029,368.72295381184614 L568.0956726848854,370.71064795590047 M568.0956726848854,370.71064795590047 L571.2281869167504,371.46832662832196 M571.2281869167504,371.46832662832196 L573.4851088142678,371.69461963035104 M573.4851088142678,371.69461963035104 L575.1970827314841,371.6215846887275 M575.1970827314841,371.6215846887275 L576.5649897550085,371.38059388002216 M576.5649897550085,371.38059388002216 L577.6890602848114,371.03301934502537 M577.6890602848114,371.03301934502537 L578.6755772510819,370.5677412702403 M369.2135560546465,491.41466823670055 L370.1934929300186,490.69103931082446 M370.1934929300186,490.69103931082446 L370.8557667447485,489.85563078860724 M370.8557667447485,489.85563078860724 L371.1792641423193,488.956361946713 M371.1792641423193,488.956361946713 L371.15667539961635,488.03870799158864 M371.15667539961635,488.03870799158864 L370.8468829763169,487.13841270553013 M370.8468829763169,487.13841270553013 L370.12361625475546,485.98866486088986 M370.12361625475546,485.98866486088986 L368.61241538026354,484.3766891642054 M368.61241538026354,484.3766891642054 L364.9535459153114,481.650699956286 M364.9535459153114,481.650699956286 L359.85514295264704,478.75797129110333 M359.85514295264704,478.75797129110333 L349.43255356643897,474.1660768899169 M578.661703608398,375.3583751018367 L577.4328760133859,375.9124733997726 M577.4328760133859,375.9124733997726 L576.0241791628284,376.28521760368903 M576.0241791628284,376.28521760368903 L574.5124272017123,376.46971205363997 M574.5124272017123,376.46971205363997 L572.9697362853518,376.4636311442608 M572.9697362853518,376.4636311442608 L571.4369652983805,376.29495692221394 M571.4369652983805,376.29495692221394 L569.4571847618946,375.88693268295594 M569.4571847618946,375.88693268295594 L566.7088753251942,375.038223836923 M566.7088753251942,375.038223836923 L561.9981928087808,372.94804476610074 M561.9981928087808,372.94804476610074 L556.9674612272241,370.0078075835081 M556.9674612272241,370.0078075835081 L548.9934025160344,363.9977961699857 M349.44924600491083,478.97056567015187 L359.87654216728316,483.56617263225974 M359.87654216728316,483.56617263225974 L366.0388203869718,487.16771173582447 M366.0388203869718,487.16771173582447 L369.5054384076549,490.04690473725503 M369.5054384076549,490.04690473725503 L370.8339057776023,491.88969108417194 M370.8339057776023,491.88969108417194 L371.1668212717228,492.82686564006406 M371.1668212717228,492.82686564006406 L371.1913785380031,493.7730903374004 M371.1913785380031,493.7730903374004 L370.90845292439667,494.59148327366813 M370.90845292439667,494.59148327366813 L370.2753037578836,495.43146841440404 M370.2753037578836,495.43146841440404 L369.79771164545963,495.84509211323774 M369.79771164545963,495.84509211323774 L369.22761752161915,496.22144832491824" stroke="black"  stroke-width="4"  fill="red"/></svg>